<?xml version="1.0" standalone="no"?>
<!DOCTYPE svg PUBLIC "-//W3C//DTD SVG 20010904//EN"
 "http://www.w3.org/TR/2001/REC-SVG-20010904/DTD/svg10.dtd">
<svg version="1.0" xmlns="http://www.w3.org/2000/svg"
 width="512.000000pt" height="512.000000pt" viewBox="0 0 512.000000 512.000000"
 preserveAspectRatio="xMidYMid meet">
<metadata>
Created by potrace 1.16, written by Peter Selinger 2001-2019
</metadata>
<g transform="translate(0.000000,512.000000) scale(0.100000,-0.100000)"
fill="#000000" stroke="none">
<path d="M2525 5029 c-521 -71 -977 -392 -1199 -844 -63 -128 -98 -228 -128
-369 -31 -145 -31 -427 0 -572 58 -267 167 -488 345 -695 111 -128 300 -275
457 -354 l54 -28 -49 -19 c-104 -41 -294 -139 -389 -202 -55 -36 -101 -66
-103 -66 -2 0 -205 170 -451 378 -246 209 -461 386 -479 395 -82 43 -193 5
-233 -79 -27 -55 -24 -131 7 -172 15 -21 719 -626 857 -736 l28 -23 -80 -98
c-198 -239 -330 -493 -402 -771 -17 -64 -30 -122 -30 -129 0 -29 62 -83 152
-133 171 -95 521 -247 704 -307 119 -39 386 -103 499 -120 259 -38 844 -38
1113 0 244 35 594 139 862 256 296 130 625 332 665 408 18 35 3 104 -50 235
-162 401 -422 725 -770 958 -101 68 -271 156 -392 202 l-82 32 47 23 c73 35
229 143 313 215 244 212 426 533 485 856 24 129 24 391 1 517 -114 614 -589
1089 -1222 1223 -116 24 -413 35 -530 19z m1000 -974 c166 -44 287 -176 314
-346 14 -83 14 -325 0 -409 -27 -168 -148 -302 -313 -346 -41 -11 -200 -14
-821 -14 -483 0 -786 4 -814 11 -157 36 -286 168 -320 327 -14 69 -14 385 0
454 34 158 157 285 314 324 37 9 242 13 815 13 658 1 774 -1 825 -14z"/>
<path d="M2196 3700 c-41 -13 -85 -57 -109 -110 -72 -159 55 -357 198 -310 73
24 135 120 135 210 0 89 -67 190 -139 210 -41 11 -46 11 -85 0z"/>
<path d="M3020 3678 c-48 -32 -90 -117 -90 -181 0 -71 19 -125 60 -168 115
-120 284 -25 284 161 0 74 -22 126 -73 174 -25 24 -42 30 -88 34 -48 3 -64 0
-93 -20z"/>
</g>
</svg>
